<svg data-v-423bf9ae="" xmlns="http://www.w3.org/2000/svg" viewBox="0 0 473 90" class="iconLeft"><!----><!----><!----><g data-v-423bf9ae="" id="27e28bca-1cee-4c3b-80a8-b09f1af93567" fill="#ffffff" transform="matrix(6.079027426108357,0,0,6.079027426108357,102.34041349614995,-15.881458384000304)"><path d="M9.80 14.88L11.13 14.88L11.13 5.08L9.16 5.08L6.20 13.26L6.17 13.26L3.23 5.08L1.26 5.08L1.26 14.88L2.59 14.88L2.59 6.90L2.62 6.90L5.49 14.88L6.89 14.88L9.77 6.90L9.80 6.90ZM19.04 13.66L14.87 13.66L14.87 11.86L19.04 11.86L19.04 8.75L17.42 7.81L15.13 7.81L13.51 8.75L13.51 13.94L15.13 14.88L19.04 14.88ZM14.87 9.03L17.68 9.03L17.68 10.64L14.87 10.64ZM20.72 9.10L22.01 9.10L22.01 13.94L23.63 14.88L25.05 14.88L25.05 13.66L23.37 13.66L23.37 9.10L25.05 9.10L25.05 7.88L23.37 7.88L23.37 5.92L22.01 6.71L22.01 7.88L20.72 7.88ZM28.08 12.01L30.90 12.01L30.90 13.73L28.08 13.73ZM28.35 14.95L29.90 14.95L30.90 14.38L31.89 14.95L32.26 14.95L32.26 8.82L30.63 7.88L27.43 7.88L27.43 9.10L30.90 9.10L30.90 10.79L28.35 10.79L26.73 11.73L26.73 14.01ZM34.99 7.88L33.66 7.88L36.25 14.88L37.88 14.88L40.47 7.88L39.14 7.88L37.07 13.59L37.04 13.59ZM47.40 13.66L43.23 13.66L43.23 11.86L47.40 11.86L47.40 8.75L45.78 7.81L43.50 7.81L41.87 8.75L41.87 13.94L43.50 14.88L47.40 14.88ZM43.23 9.03L46.05 9.03L46.05 10.64L43.23 10.64ZM54.91 11.66L53.28 10.72L51.00 10.72L51.00 9.10L54.77 9.10L54.77 7.88L51.27 7.88L49.64 8.82L49.64 11.00L51.27 11.94L53.55 11.94L53.55 13.66L49.64 13.66L49.64 14.88L53.28 14.88L54.91 13.94ZM56.59 9.10L57.88 9.10L57.88 13.94L59.50 14.88L60.91 14.88L60.91 13.66L59.23 13.66L59.23 9.10L60.91 9.10L60.91 7.88L59.23 7.88L59.23 5.92L57.88 6.71L57.88 7.88L56.59 7.88Z"></path></g><!----><g data-v-423bf9ae="" id="2ad8ebcb-4e13-4dfe-8438-3eca0ef6c081" transform="matrix(2.8125,0,0,2.8125,0,0)" stroke="none" fill="#E25396"><path d="M16 1c8.271 0 15 6.729 15 15s-6.729 15-15 15S1 24.271 1 16 7.729 1 16 1m0-1C7.163 0 0 7.163 0 16s7.163 16 16 16 16-7.163 16-16S24.837 0 16 0z"></path><path d="M16 7.045L24.955 16 16 24.955 7.045 16 16 7.045m0-1.414L5.631 16 16 26.369 26.369 16 16 5.631z"></path></g><!----></svg>